<?xml version="1.0" encoding="UTF-8" standalone="no"?>
<!-- Created with Inkscape (http://www.inkscape.org/) -->

<svg
   viewBox="0 0 1000 1000"
   version="1.1"
   id="svg52"
   sodipodi:docname="trilium.svg"
   inkscape:version="1.1.2 (0a00cf5339, 2022-02-04)"
   xmlns:inkscape="http://www.inkscape.org/namespaces/inkscape"
   xmlns:sodipodi="http://sodipodi.sourceforge.net/DTD/sodipodi-0.dtd"
   xmlns="http://www.w3.org/2000/svg"
   xmlns:svg="http://www.w3.org/2000/svg">
  <sodipodi:namedview
     id="namedview8"
     pagecolor="#ffffff"
     bordercolor="#666666"
     borderopacity="1.0"
     inkscape:pageshadow="2"
     inkscape:pageopacity="0.0"
     inkscape:pagecheckerboard="0"
     showgrid="false"
     inkscape:zoom="0.644"
     inkscape:cx="263.19876"
     inkscape:cy="552.01863"
     inkscape:window-width="1860"
     inkscape:window-height="1171"
     inkscape:window-x="60"
     inkscape:window-y="0"
     inkscape:window-maximized="1"
     inkscape:current-layer="svg52" />
  <defs
     id="defs49" />
  <g
     id="layer1"
     transform="matrix(38.901422,0,0,38.901422,-3639.1766,-4159.6755)">
    <path
       d="m 113.74804,110.03165 c -1.42996,-0.0442 -2.17088,0.625 -2.34981,0.68707 0.16278,-0.3083 0.27171,-0.50253 0.688,-0.936 -1.41596,-0.0148 -2.72887,0.29159 -3.73058,1.22872 -1.34352,1.25681 -1.23908,2.2981 -1.24178,2.29296 2.6e-4,5.3e-4 -0.21198,-0.67904 -0.27564,-1.40587 -1.46206,2.02387 -2.03936,4.70551 -0.93087,6.70595 0.6881,-1.65994 1.78073,-3.09055 3.18884,-4.21865 0.0464,-1.18373 0.52261,-2.18385 1.27529,-2.92226 -0.67922,0.81298 -0.97894,1.73919 -0.94869,2.67267 1.63782,-1.2219 3.64526,-2.03628 5.85031,-2.30351 -1.59648,0.29336 -3.04295,0.92965 -4.30723,1.79752 0.79133,0.36141 1.69504,0.41807 2.64485,0.0873 -0.91061,0.42675 -1.92147,0.49657 -2.9441,0.12489 -0.90763,0.66467 -1.71482,1.45002 -2.40861,2.31313 1.2317,0.40267 2.57896,0.31941 3.91968,-0.36393 -1.23077,0.79497 -2.67669,1.0931 -4.22173,0.75455 -0.61594,0.82662 -1.1322,1.71446 -1.53571,2.62946 0.49703,0.36645 2.65401,1.5162 6.35388,-1.21219 -0.52242,-0.15439 -0.94581,-0.37271 -0.946,-0.37308 0.0118,0.005 0.3813,0.0392 1.46198,-0.6082 0.95542,-0.55873 1.77726,-1.5708 2.38397,-2.35858 -0.51607,-0.19014 -0.91799,-0.38969 -0.91818,-0.39016 -2.6e-4,-2.6e-4 0.66691,0.0449 1.70185,-0.74737 0.92313,-0.70667 1.95369,-1.73106 1.95686,-1.70213 0.007,0.006 -2.27337,-1.67833 -4.66658,-1.75226"
       id="path1983"
       style="stroke-width:0.264583" />
    <path
       d="m 97.266941,113.71206 c 1.085186,-0.31546 1.776174,0.0487 1.924677,0.0607 -0.181896,-0.20295 -0.301379,-0.32953 -0.700376,-0.57786 1.079852,-0.29036 2.140718,-0.31557 3.081128,0.20137 1.26132,0.69332 1.37526,1.50765 1.37643,1.50324 -2.1e-4,5.2e-4 0.0356,-0.55938 -0.051,-1.12601 1.49474,1.25469 2.43548,3.18504 1.96031,4.92842 -0.83512,-1.12979 -1.93695,-2.00494 -3.22366,-2.58743 -0.25583,-0.89312 -0.80621,-1.56175 -1.51917,-1.97627 0.67072,0.48585 1.07227,1.13284 1.22302,1.85031 -1.47981,-0.60864 -3.166266,-0.83387 -4.90201,-0.60297 1.275297,-0.091 3.97663,0.0938 6.16856,1.91271 -0.8667,0.54971 -1.91231,0.75182 -3.064598,0.49509 1.089028,0.36336 2.250068,0.30579 3.368318,-0.25684 0.62485,0.50874 1.18494,1.08377 1.66384,1.70177 -0.31184,0.37733 -1.74694,1.67877 -5.0839,0.32807 0.370727,-0.22061 0.65376,-0.47052 0.65386,-0.47083 -0.008,0.006 -0.2842,0.10505 -1.231125,-0.17543 -0.83448,-0.23762 -1.651249,-0.84721 -2.261907,-1.32822 0.359204,-0.24655 0.629433,-0.47787 0.629433,-0.47829 1.03e-4,-2.1e-4 -0.50152,0.16566 -1.440336,-0.23425 -0.837464,-0.35685 -1.816182,-0.93461 -1.813195,-0.91192 -0.0038,0.006 1.425721,-1.7274 3.241691,-2.25538"
       id="path1985"
       style="stroke-width:0.264583" />
    <path
       d="m 105.05663,128.63261 c -0.79134,-0.73638 -0.82521,-1.48618 -0.88758,-1.6143 -0.0802,0.25063 -0.12732,0.41184 -0.13946,0.86376 -0.76798,-0.74444 -1.30598,-1.60504 -1.33424,-2.63626 -0.0379,-1.38278 0.58413,-1.88161 0.57992,-1.88032 5.3e-4,0 -0.48274,0.24889 -0.91199,0.60198 0.31536,-1.85427 1.46295,-3.58849 3.14515,-4.06444 -0.53297,1.24924 -0.72418,2.5913 -0.58168,3.94005 -0.61836,0.65478 -0.90639,1.44016 -0.90382,2.23317 0.0773,-0.79359 0.4199,-1.44591 0.94341,-1.92678 0.21481,1.52067 0.84951,3.02079 1.88754,4.33458 -0.6972,-1.00448 -1.86009,-3.31968 -1.41507,-6.02844 0.87976,0.44016 1.55757,1.20019 1.90564,2.27635 -0.22846,-1.0771 -0.84226,-2.00411 -1.85541,-2.64481 0.11867,-0.76719 0.32424,-1.51409 0.60492,-2.21568 0.46593,0.0691 2.24834,0.60303 2.75082,4.02125 -0.36419,-0.19538 -0.71004,-0.30404 -0.71039,-0.30392 0.009,0.003 0.22601,0.18165 0.45413,1.10045 0.20896,0.8051 0.1,1.78048 -0.003,2.5223 -0.38031,-0.17308 -0.70444,-0.28043 -0.70467,-0.28019 -2.6e-4,0 0.38218,0.33044 0.50704,1.30201 0.11131,0.86673 0.10758,1.95955 0.12498,1.94579 0.007,2.2e-4 -2.13212,-0.31444 -3.45655,-1.54655"
       id="path1987"
       style="stroke-width:0.264583" />
  </g>
</svg>
